<?xml version="1.0" encoding="UTF-8" standalone="no"?>
<!-- Created with Inkscape (http://www.inkscape.org/) -->

<svg
   version="1.1"
   id="svg1377"
   xml:space="preserve"
   width="682.66669"
   height="682.66669"
   viewBox="0 0 682.66669 682.66669"
   xmlns="http://www.w3.org/2000/svg"
   xmlns:svg="http://www.w3.org/2000/svg"><defs
     id="defs1381"><clipPath
       clipPathUnits="userSpaceOnUse"
       id="clipPath1391"><path
         d="M 0,512 H 512 V 0 H 0 Z"
         id="path1389" /></clipPath></defs><g
     id="g1383"
     transform="matrix(1.3333333,0,0,-1.3333333,0,682.66667)"><g
       id="g1385"><g
         id="g1387"
         clip-path="url(#clipPath1391)"><g
           id="g1393"
           transform="translate(7.5002,262.1885)"><path
             d="m 0,0 v 129.77 c 0,7.732 6.268,14 14,14 h 18.554"
             style="fill:none;stroke:#000000;stroke-width:15;stroke-linecap:round;stroke-linejoin:round;stroke-miterlimit:10;stroke-dasharray:none;stroke-opacity:1"
             id="path1395" /></g><g
           id="g1397"
           transform="translate(202.7253,405.9585)"><path
             d="m 0,0 h 17.941 c 7.733,0 14,-6.268 14,-14 v -348.5 c 0,-7.732 -6.267,-14 -14,-14 h -199.166 c -7.733,0 -14,6.268 -14,14 v 188.73"
             style="fill:none;stroke:#000000;stroke-width:15;stroke-linecap:round;stroke-linejoin:round;stroke-miterlimit:10;stroke-dasharray:none;stroke-opacity:1"
             id="path1399" /></g><g
           id="g1401"
           transform="translate(197.6667,405.9585)"><path
             d="m 0,0 c 0,-42.296 -34.287,-76.583 -76.583,-76.583 -42.296,0 -76.584,34.287 -76.584,76.583 0,42.295 34.288,76.583 76.584,76.583 C -34.287,76.583 0,42.295 0,0 Z"
             style="fill:none;stroke:#000000;stroke-width:15;stroke-linecap:round;stroke-linejoin:round;stroke-miterlimit:10;stroke-dasharray:none;stroke-opacity:1"
             id="path1403" /></g><g
           id="g1405"
           transform="translate(67.2731,263.2754)"><path
             d="M 0,0 H 107.62"
             style="fill:none;stroke:#000000;stroke-width:15;stroke-linecap:round;stroke-linejoin:round;stroke-miterlimit:10;stroke-dasharray:none;stroke-opacity:1"
             id="path1407" /></g><g
           id="g1409"
           transform="translate(67.2731,221.2368)"><path
             d="M 0,0 H 107.62"
             style="fill:none;stroke:#000000;stroke-width:15;stroke-linecap:round;stroke-linejoin:round;stroke-miterlimit:10;stroke-dasharray:none;stroke-opacity:1"
             id="path1411" /></g><g
           id="g1413"
           transform="translate(67.2731,179.1982)"><path
             d="M 0,0 H 107.62"
             style="fill:none;stroke:#000000;stroke-width:15;stroke-linecap:round;stroke-linejoin:round;stroke-miterlimit:10;stroke-dasharray:none;stroke-opacity:1"
             id="path1415" /></g><g
           id="g1417"
           transform="translate(97.9128,106.2334)"><path
             d="m 0,0 19.917,-17.069 c 1.872,-1.604 4.635,-1.604 6.507,0 L 46.341,0"
             style="fill:none;stroke:#000000;stroke-width:15;stroke-linecap:round;stroke-linejoin:round;stroke-miterlimit:10;stroke-dasharray:none;stroke-opacity:1"
             id="path1419" /></g><g
           id="g1421"
           transform="translate(121.0837,432.625)"><path
             d="M 0,0 V -53.333"
             style="fill:none;stroke:#000000;stroke-width:15;stroke-linecap:round;stroke-linejoin:round;stroke-miterlimit:10;stroke-dasharray:none;stroke-opacity:1"
             id="path1423" /></g><g
           id="g1425"
           transform="translate(328.9235,29.4585)"><path
             d="m 0,0 h -37.59 c -7.732,0 -14,6.268 -14,14 v 348.5 c 0,7.732 6.268,14 14,14 h 18.243"
             style="fill:none;stroke:#000000;stroke-width:15;stroke-linecap:round;stroke-linejoin:round;stroke-miterlimit:10;stroke-dasharray:none;stroke-opacity:1"
             id="path1427" /></g><g
           id="g1429"
           transform="translate(473.8425,405.9585)"><path
             d="m 0,0 h 16.657 c 7.733,0 14,-6.268 14,-14 v -348.5 c 0,-7.732 -6.267,-14 -14,-14 h -131.576"
             style="fill:none;stroke:#000000;stroke-width:15;stroke-linecap:round;stroke-linejoin:round;stroke-miterlimit:10;stroke-dasharray:none;stroke-opacity:1"
             id="path1431" /></g><g
           id="g1433"
           transform="translate(467.4997,405.9585)"><path
             d="m 0,0 c 0,-42.296 -34.287,-76.583 -76.583,-76.583 -42.296,0 -76.583,34.287 -76.583,76.583 0,42.295 34.287,76.583 76.583,76.583 C -34.287,76.583 0,42.295 0,0 Z"
             style="fill:none;stroke:#000000;stroke-width:15;stroke-linecap:round;stroke-linejoin:round;stroke-miterlimit:10;stroke-dasharray:none;stroke-opacity:1"
             id="path1435" /></g><g
           id="g1437"
           transform="translate(337.1061,263.2754)"><path
             d="M 0,0 H 107.621"
             style="fill:none;stroke:#000000;stroke-width:15;stroke-linecap:round;stroke-linejoin:round;stroke-miterlimit:10;stroke-dasharray:none;stroke-opacity:1"
             id="path1439" /></g><g
           id="g1441"
           transform="translate(337.1061,221.2368)"><path
             d="M 0,0 H 107.621"
             style="fill:none;stroke:#000000;stroke-width:15;stroke-linecap:round;stroke-linejoin:round;stroke-miterlimit:10;stroke-dasharray:none;stroke-opacity:1"
             id="path1443" /></g><g
           id="g1445"
           transform="translate(337.1061,179.1982)"><path
             d="M 0,0 H 107.621"
             style="fill:none;stroke:#000000;stroke-width:15;stroke-linecap:round;stroke-linejoin:round;stroke-miterlimit:10;stroke-dasharray:none;stroke-opacity:1"
             id="path1447" /></g><g
           id="g1449"
           transform="translate(367.7458,106.2334)"><path
             d="m 0,0 19.917,-17.069 c 1.873,-1.604 4.635,-1.604 6.508,0 L 46.342,0"
             style="fill:none;stroke:#000000;stroke-width:15;stroke-linecap:round;stroke-linejoin:round;stroke-miterlimit:10;stroke-dasharray:none;stroke-opacity:1"
             id="path1451" /></g><g
           id="g1453"
           transform="translate(374.5417,432.625)"><path
             d="M 0,0 V -53.333"
             style="fill:none;stroke:#000000;stroke-width:15;stroke-linecap:round;stroke-linejoin:round;stroke-miterlimit:10;stroke-dasharray:none;stroke-opacity:1"
             id="path1455" /></g><g
           id="g1457"
           transform="translate(407.2917,432.625)"><path
             d="M 0,0 V -53.333"
             style="fill:none;stroke:#000000;stroke-width:15;stroke-linecap:round;stroke-linejoin:round;stroke-miterlimit:10;stroke-dasharray:none;stroke-opacity:1"
             id="path1459" /></g></g></g></g></svg>
